<svg xmlns="http://www.w3.org/2000/svg" width="1200" height="630" fill="none" viewBox="0 0 1200 630"><defs><linearGradient id="bg" x1="0" x2="1200" y1="0" y2="630" gradientUnits="userSpaceOnUse"><stop offset="0" stop-color="#18293A"/><stop offset="1" stop-color="#0F1E2D"/></linearGradient><radialGradient id="glow" cx=".74" cy=".42" r=".6"><stop offset="0" stop-color="#1A8F85" stop-opacity=".28"/><stop offset="1" stop-color="#1A8F85" stop-opacity="0"/></radialGradient><marker id="agrey" markerHeight="8" markerWidth="8" orient="auto" refX="5.5" refY="3"><path fill="#6B86A0" d="M0,0.5 L0,5.5 L6,3 z"/></marker><marker id="aamber" markerHeight="8" markerWidth="8" orient="auto" refX="5.5" refY="3"><path fill="#D97238" d="M0,0.5 L0,5.5 L6,3 z"/></marker></defs><rect width="1200" height="630" fill="url(#bg)"/><rect width="1200" height="630" fill="url(#glow)"/><g fill="#2A3E54" opacity=".5"><g><circle cx="60" cy="70" r="2"/><circle cx="110" cy="70" r="2"/><circle cx="160" cy="70" r="2"/><circle cx="60" cy="120" r="2"/><circle cx="110" cy="120" r="2"/><circle cx="160" cy="120" r="2"/><circle cx="60" cy="170" r="2"/><circle cx="110" cy="170" r="2"/></g></g><g><g stroke="#28A89E" stroke-linecap="round" stroke-width="4.5" transform="translate(80, 70)"><line x1="26" x2="6" y1="8" y2="46"/><line x1="26" x2="46" y1="8" y2="46"/><line x1="6" x2="46" y1="46" y2="46"/></g><g fill="#28A89E" transform="translate(80, 70)"><circle cx="26" cy="8" r="7"/><circle cx="6" cy="46" r="7"/><circle cx="46" cy="46" r="7"/></g><text x="72" y="44" fill="#E2EAF2" font-family="ui-monospace, 'Cascadia Code', Menlo, monospace" font-size="40" font-weight="700" letter-spacing="-1" transform="translate(80, 70)">istio<tspan fill="#28A89E">-viz</tspan></text></g><text x="80" y="250" fill="#FFF" font-family="ui-monospace, 'Cascadia Code', Menlo, monospace" font-size="74" font-weight="700" letter-spacing="-2.5">Your routes,</text><text x="80" y="332" fill="#28A89E" font-family="ui-monospace, 'Cascadia Code', Menlo, monospace" font-size="74" font-weight="700" letter-spacing="-2.5">made visible.</text><text x="82" y="400" fill="#9BB8D4" font-family="system-ui, -apple-system, 'Segoe UI', sans-serif" font-size="27">Visualize effective Istio L7 routing topology</text><text x="82" y="438" fill="#9BB8D4" font-family="system-ui, -apple-system, 'Segoe UI', sans-serif" font-size="27">from your manifests — or live from your cluster.</text><g font-family="ui-monospace, Menlo, monospace" font-size="22" font-weight="700"><g><rect width="116" height="44" x="82" y="486" fill="#1B3640" stroke="#28A89E" stroke-width="1.5" rx="8"/><text x="140" y="515" fill="#5EC89A" text-anchor="middle">render</text></g><g><rect width="100" height="44" x="214" y="486" fill="#1B3640" stroke="#28A89E" stroke-width="1.5" rx="8"/><text x="264" y="515" fill="#5EC89A" text-anchor="middle">trace</text></g><g><rect width="86" height="44" x="330" y="486" fill="#1B3640" stroke="#28A89E" stroke-width="1.5" rx="8"/><text x="373" y="515" fill="#5EC89A" text-anchor="middle">lint</text></g><g><rect width="108" height="44" x="432" y="486" fill="#1B3640" stroke="#28A89E" stroke-width="1.5" rx="8"/><text x="486" y="515" fill="#5EC89A" text-anchor="middle">watch</text></g></g><g transform="translate(770, 150)"><rect width="190" height="56" x="90" y="0" fill="#1B3640" stroke="#28A89E" stroke-width="2" rx="11"/><text x="185" y="24" fill="#5EC89A" font-family="ui-monospace, Menlo, monospace" font-size="14" font-weight="700" text-anchor="middle">Gateway</text><text x="185" y="43" fill="#28A89E" font-family="ui-monospace, Menlo, monospace" font-size="11.5" text-anchor="middle">:443 · *.example.com</text><line x1="185" x2="185" y1="56" y2="92" stroke="#6B86A0" stroke-width="2" marker-end="url(#agrey)"/><rect width="214" height="46" x="78" y="96" fill="#243547" stroke="#3A526B" stroke-width="2" rx="23"/><text x="185" y="124" fill="#E2EAF2" font-family="ui-monospace, Menlo, monospace" font-size="15" text-anchor="middle">api.example.com</text><path fill="none" stroke="#6B86A0" stroke-width="2" marker-end="url(#agrey)" d="M135 142 C 135 178 60 178 60 200"/><path fill="none" stroke="#D97238" stroke-width="2" marker-end="url(#aamber)" d="M235 142 C 235 178 310 178 310 200"/><rect width="200" height="50" x="-12" y="202" fill="#243547" stroke="#3A526B" stroke-width="2" rx="9"/><text x="88" y="222" fill="#E2EAF2" font-family="ui-monospace, Menlo, monospace" font-size="13" text-anchor="middle">GET /api/v1/*</text><text x="88" y="240" fill="#6B86A0" font-family="ui-monospace, Menlo, monospace" font-size="11" text-anchor="middle">→ cart-svc · 100%</text><rect width="200" height="50" x="222" y="202" fill="#2E1E10" stroke="#D97238" stroke-width="2" rx="9"/><text x="322" y="222" fill="#E2EAF2" font-family="ui-monospace, Menlo, monospace" font-size="13" text-anchor="middle">POST /checkout</text><text x="322" y="240" fill="#D97238" font-family="ui-monospace, Menlo, monospace" font-size="11" text-anchor="middle">traced request ↓</text><line x1="88" x2="88" y1="252" y2="280" stroke="#6B86A0" stroke-width="2" marker-end="url(#agrey)"/><line x1="322" x2="322" y1="252" y2="280" stroke="#D97238" stroke-width="2" marker-end="url(#aamber)"/><rect width="200" height="40" x="-12" y="282" fill="#1A8F85" rx="8"/><text x="88" y="307" fill="#FFF" font-family="ui-monospace, Menlo, monospace" font-size="13" font-weight="700" text-anchor="middle">cart-svc : 8080</text><rect width="200" height="40" x="222" y="282" fill="#D97238" rx="8"/><text x="322" y="307" fill="#FFF" font-family="ui-monospace, Menlo, monospace" font-size="13" font-weight="700" text-anchor="middle">checkout-svc : 8080</text></g><text x="80" y="582" fill="#6B86A0" font-family="ui-monospace, Menlo, monospace" font-size="20">istio-viz.wckd14.xyz</text><text x="1120" y="582" fill="#6B86A0" font-family="ui-monospace, Menlo, monospace" font-size="20" text-anchor="end">offline · read-only · no cluster required</text></svg>